<svg xmlns="http://www.w3.org/2000/svg" viewBox="0 0 653 686" role="img" aria-labelledby="title desc" color="#000000">
  <title id="title">Life Terminal logo icon</title>
  <desc id="desc">A geometric LT terminal mark with a command prompt symbol.</desc>
  <path fill="currentColor" fill-rule="evenodd" d="
    M 243.0 271.0 L 243.0 283.0 L 242.0 284.0 L 242.0 295.0 L 243.0 296.0 L 328.0 296.0 L 328.0 271.0 Z
    M 358.0 197.0 L 358.0 281.0 L 383.0 286.0 L 417.0 295.0 L 430.0 297.0 L 437.0 300.0 L 437.0 637.0 L 507.0 612.0 L 519.0 605.0 L 529.0 594.0 L 533.0 586.0 L 537.0 570.0 L 537.0 324.0 L 538.0 323.0 L 627.0 345.0 L 632.0 345.0 L 632.0 269.0 L 586.0 257.0 L 582.0 255.0 L 559.0 250.0 L 548.0 246.0 L 533.0 243.0 L 518.0 238.0 L 507.0 236.0 L 503.0 234.0 L 491.0 232.0 L 457.0 222.0 L 426.0 215.0 L 422.0 213.0 Z
    M 195.0 158.0 L 176.0 178.0 L 216.0 218.0 L 176.0 259.0 L 196.0 279.0 L 256.0 219.0 Z
    M 26.0 49.0 L 21.0 55.0 L 20.0 59.0 L 20.0 159.0 L 21.0 160.0 L 20.0 162.0 L 20.0 567.0 L 23.0 575.0 L 30.0 583.0 L 46.0 591.0 L 104.0 605.0 L 108.0 607.0 L 127.0 611.0 L 154.0 619.0 L 162.0 620.0 L 189.0 628.0 L 193.0 628.0 L 197.0 630.0 L 239.0 640.0 L 266.0 648.0 L 302.0 656.0 L 334.0 665.0 L 357.0 665.0 L 379.0 658.0 L 379.0 485.0 L 265.0 485.0 L 264.0 484.0 L 245.0 484.0 L 244.0 485.0 L 204.0 485.0 L 203.0 484.0 L 202.0 485.0 L 136.0 485.0 L 133.0 484.0 L 132.0 485.0 L 130.0 483.0 L 130.0 70.0 L 132.0 68.0 L 136.0 70.0 L 162.0 76.0 L 177.0 81.0 L 226.0 93.0 L 237.0 97.0 L 259.0 102.0 L 299.0 114.0 L 306.0 115.0 L 310.0 117.0 L 343.0 125.0 L 383.0 137.0 L 401.0 141.0 L 476.0 163.0 L 487.0 165.0 L 494.0 168.0 L 501.0 169.0 L 530.0 178.0 L 570.0 188.0 L 613.0 201.0 L 624.0 203.0 L 631.0 206.0 L 632.0 205.0 L 632.0 164.0 L 630.0 156.0 L 627.0 150.0 L 617.0 140.0 L 609.0 136.0 L 602.0 135.0 L 598.0 133.0 L 498.0 108.0 L 494.0 108.0 L 429.0 91.0 L 425.0 91.0 L 356.0 73.0 L 352.0 73.0 L 305.0 61.0 L 279.0 56.0 L 258.0 50.0 L 254.0 50.0 L 233.0 44.0 L 229.0 44.0 L 190.0 34.0 L 173.0 31.0 L 160.0 27.0 L 147.0 25.0 L 130.0 20.0 L 119.0 24.0 L 108.0 26.0 L 97.0 30.0 L 90.0 31.0 L 79.0 35.0 L 72.0 36.0 L 61.0 40.0 L 50.0 42.0 Z
  "/>
</svg>
